<svg xmlns="http://www.w3.org/2000/svg" xmlns:xlink="http://www.w3.org/1999/xlink" width="1920" zoomAndPan="magnify" viewBox="0 0 1440 809.999993" height="1080" preserveAspectRatio="xMidYMid meet" version="1.0"><defs><filter x="0%" y="0%" width="100%" height="100%" id="6c90b33787"><feColorMatrix values="0 0 0 0 1 0 0 0 0 1 0 0 0 0 1 0 0 0 1 0" color-interpolation-filters="sRGB"/></filter><mask id="3d57d00c60"><g filter="url(#6c90b33787)"><rect x="-144" width="1728" fill="#000000" y="-80.999999" height="971.999992" fill-opacity="0.22"/></g></mask><clipPath id="facb4f20ce"><path d="M 0 0 L 505 0 L 505 349.679688 L 0 349.679688 Z M 0 0 " clip-rule="nonzero"/></clipPath><clipPath id="d55fc4c36e"><rect x="0" width="506" y="0" height="350"/></clipPath><mask id="a016dd1250"><g filter="url(#6c90b33787)"><rect x="-144" width="1728" fill="#000000" y="-80.999999" height="971.999992" fill-opacity="0.22"/></g></mask><clipPath id="2932f6a149"><path d="M 48 168 L 650 168 L 650 546 L 48 546 Z M 48 168 " clip-rule="nonzero"/></clipPath><clipPath id="1861aef38f"><path d="M 861.003906 157.644531 L 581.476562 889.855469 L -56.140625 646.4375 L 223.386719 -85.769531 Z M 861.003906 157.644531 " clip-rule="nonzero"/></clipPath><clipPath id="c7fad3c038"><path d="M 861.003906 157.644531 L 581.476562 889.855469 L -56.140625 646.4375 L 223.386719 -85.769531 Z M 861.003906 157.644531 " clip-rule="nonzero"/></clipPath><clipPath id="63448e2f69"><rect x="0" width="650" y="0" height="546"/></clipPath><mask id="34b11cec84"><g filter="url(#6c90b33787)"><rect x="-144" width="1728" fill="#000000" y="-80.999999" height="971.999992" fill-opacity="0.51"/></g></mask><clipPath id="373e77b870"><path d="M 0 42 L 337 42 L 337 430 L 0 430 Z M 0 42 " clip-rule="nonzero"/></clipPath><clipPath id="372e043a86"><path d="M 284.753906 -8.984375 L 366.230469 401.507812 L -284.816406 530.734375 L -366.296875 120.242188 Z M 284.753906 -8.984375 " clip-rule="nonzero"/></clipPath><clipPath id="5d12ec2349"><path d="M 284.753906 -8.984375 L 366.230469 401.507812 L -284.816406 530.734375 L -366.296875 120.242188 Z M 284.753906 -8.984375 " clip-rule="nonzero"/></clipPath><clipPath id="217c9a1818"><rect x="0" width="366" y="0" height="535"/></clipPath><mask id="eaf0ba262e"><g filter="url(#6c90b33787)"><rect x="-144" width="1728" fill="#000000" y="-80.999999" height="971.999992" fill-opacity="0.5"/></g></mask><clipPath id="4c0af6972b"><path d="M 54 165 L 390 165 L 390 669 L 54 669 Z M 54 165 " clip-rule="nonzero"/></clipPath><clipPath id="11027037f8"><path d="M 592.25 -5.765625 L 948.164062 368.875 L 353.855469 933.484375 L -2.0625 558.84375 Z M 592.25 -5.765625 " clip-rule="nonzero"/></clipPath><clipPath id="fe568d7691"><path d="M 592.25 -5.765625 L 948.164062 368.875 L 353.855469 933.484375 L -2.0625 558.84375 Z M 592.25 -5.765625 " clip-rule="nonzero"/></clipPath><clipPath id="56a62818e8"><rect x="0" width="390" y="0" height="669"/></clipPath></defs><rect x="-144" width="1728" fill="#ffffff" y="-80.999999" height="971.999992" fill-opacity="1"/><rect x="-144" width="1728" fill="#323b4c" y="-80.999999" height="971.999992" fill-opacity="1"/><g mask="url(#3d57d00c60)"><g transform="matrix(1, 0, 0, 1, 0, 0.000000000000039746)"><g clip-path="url(#d55fc4c36e)"><g clip-path="url(#facb4f20ce)"><path fill="#737373" d="M 27.128906 -257.996094 C 110.382812 -294.992188 396.039062 -212.984375 454.5 -114.078125 C 512.964844 -15.171875 517.527344 52.410156 481.511719 151.4375 C 445.496094 250.464844 355.953125 322.363281 265.789062 335.804688 C 175.628906 349.25 45.136719 376.257812 -35.898438 277.351562 C -116.933594 178.445312 -148.386719 169.320312 -152.828125 128.867188 C -157.265625 88.417969 -179.839844 -37.496094 -121.375 -127.519531 C -62.910156 -217.546875 -53.90625 -221.988281 27.128906 -257.996094 Z M 27.128906 -257.996094 " fill-opacity="1" fill-rule="nonzero"/></g></g></g></g><g mask="url(#a016dd1250)"><g transform="matrix(1, 0, 0, 1, 790, 264)"><g clip-path="url(#63448e2f69)"><g clip-path="url(#2932f6a149)"><g clip-path="url(#1861aef38f)"><g clip-path="url(#c7fad3c038)"><path fill="#737370" d="M 542.488281 644.757812 C 416.660156 708.660156 12.816406 672.222656 51.410156 448.097656 C 77.453125 296.496094 190.332031 374.355469 388.175781 318.582031 C 453.675781 300.054688 622.273438 67.050781 725.488281 221.359375 C 786.625 312.824219 706.972656 561.128906 542.488281 644.757812 Z M 542.488281 644.757812 " fill-opacity="1" fill-rule="nonzero"/></g></g></g></g></g></g><g mask="url(#34b11cec84)"><g transform="matrix(1, 0, 0, 1, 0, 0.000000000000039746)"><g clip-path="url(#217c9a1818)"><g clip-path="url(#373e77b870)"><g clip-path="url(#372e043a86)"><g clip-path="url(#5d12ec2349)"><path fill="#ffffff" d="M 240.433594 426.476562 C 189.484375 435.078125 137.175781 427.289062 90.9375 404.285156 C 77.175781 397.929688 64 390.703125 50.746094 383.113281 C 26.941406 370.042969 0.0585938 364.402344 -27.125 366.769531 C -45.855469 367.835938 -64.148438 371.089844 -82.878906 372.15625 C -117.640625 374.511719 -152.476562 376.503906 -186.933594 368.957031 C -239.382812 358.546875 -285.753906 329.136719 -317.75 286.269531 C -329.53125 270.816406 -338.832031 254.488281 -342.300781 235.113281 C -345.910156 215.007812 -345.515625 194.105469 -340.746094 174.230469 C -339.425781 169.425781 -338.109375 164.621094 -336.058594 159.671875 C -330.425781 144.167969 -316.707031 133.117188 -300.453125 131.023438 C -279.828125 128.066406 -259.058594 127.730469 -238.511719 130.089844 C -196.835938 133.929688 -154.566406 131.21875 -113.601562 121.953125 C -97.34375 117.96875 -81.59375 111.433594 -67.078125 102.496094 C -39.363281 87.53125 -11.359375 72.128906 16.140625 56.070312 C 46.335938 38.339844 76.578125 38.015625 107.742188 51.894531 C 114.441406 55.109375 121.140625 58.320312 127.546875 61.972656 C 151.355469 75.039062 174.800781 88.179688 198.609375 101.246094 C 228.457031 118.039062 257.066406 136.210938 279.980469 161.949219 C 297.003906 180.90625 312.128906 201.753906 324.84375 223.839844 C 332.328125 236.738281 336.386719 251.457031 336.292969 266.238281 C 336.484375 282.480469 337.480469 298.941406 336.507812 315.035156 C 336.113281 334.042969 329.960938 352.675781 318.714844 368.539062 C 303.816406 388.910156 287.320312 406.949219 264.058594 417.625 C 255.378906 421.617188 245.683594 424.300781 240.433594 426.476562 Z M -123.445312 127.691406 C -163.609375 135.285156 -204.566406 136.980469 -245.511719 132.992188 C -264.164062 130.636719 -282.964844 131.339844 -301.261719 134.59375 C -315.984375 136.757812 -328.023438 146.71875 -333.292969 160.257812 C -337.609375 170.957031 -340.320312 182.097656 -341.070312 193.601562 C -343.148438 217.488281 -342.164062 241.523438 -329.957031 262.949219 C -300.523438 313.894531 -257.800781 347.816406 -200.550781 363.332031 C -161.65625 374.164062 -122.523438 372.832031 -82.949219 369.898438 C -64.292969 368.464844 -45.558594 365.503906 -26.464844 364.363281 C 1.449219 361.851562 29.203125 368.082031 53.519531 381.804688 C 62.910156 387.132812 72.59375 392.027344 82.351562 397.28125 C 122.25 418.890625 167.121094 429.292969 212.523438 427.097656 C 228.703125 426.535156 244.738281 423.351562 259.757812 416.964844 C 283.386719 406.214844 300.464844 389.199219 315.726562 368.753906 C 327.410156 353.183594 333.925781 334.476562 334.246094 315.105469 C 334.855469 299.082031 333.859375 282.621094 333.738281 266.746094 C 333.765625 251.597656 329.777344 237.246094 322.367188 224.710938 C 309.355469 203.0625 294.742188 182.871094 278.15625 164.203125 C 256.1875 139.414062 228.378906 121.460938 200.132812 105.109375 C 176.179688 91.3125 151.570312 78.027344 127.324219 64.664062 C 120.554688 61.089844 114.148438 57.4375 107.082031 54.296875 C 76.71875 40.636719 47.207031 40.816406 18.101562 58.332031 C -7.351562 73.226562 -33.097656 86.664062 -58.257812 101.125 C -78.609375 113.113281 -99.683594 123.355469 -123.445312 127.691406 Z M -123.445312 127.691406 " fill-opacity="1" fill-rule="nonzero"/></g></g></g></g></g></g><g mask="url(#eaf0ba262e)"><g transform="matrix(1, 0, 0, 1, 1050, 141)"><g clip-path="url(#56a62818e8)"><g clip-path="url(#4c0af6972b)"><g clip-path="url(#11027037f8)"><g clip-path="url(#fe568d7691)"><path fill="#ffffff" d="M 833.332031 477.972656 C 785.820312 520.574219 726.082031 546.972656 662.640625 553.484375 C 644.082031 555.9375 625.558594 557.09375 606.714844 557.917969 C 573.242188 559.992188 541.460938 571.847656 514.644531 592.261719 C 495.800781 605.738281 478.847656 621.207031 460.003906 634.683594 C 425.273438 660.089844 390.226562 685.164062 349.28125 700.03125 C 287.660156 723.785156 219.847656 723.699219 158.167969 700.082031 C 135.671875 691.726562 115.1875 680.828125 98.785156 662.894531 C 81.746094 644.292969 68.371094 622.21875 60.230469 598.328125 C 58.4375 592.441406 56.644531 586.554688 55.515625 580.039062 C 51.167969 560.136719 58.195312 539.546875 73.78125 526.636719 C 93.359375 509.933594 114.816406 495.875 137.816406 484.773438 C 183.855469 461.273438 226.1875 430.546875 262.835938 393.832031 C 277.175781 378.941406 289.304688 361.726562 298.558594 342.816406 C 317.613281 308.90625 336.683594 274.34375 354.789062 239.433594 C 374.609375 201 405.964844 180.699219 447.652344 174.613281 C 456.765625 173.542969 465.878906 172.476562 474.976562 172.054688 C 508.449219 169.980469 541.59375 168.21875 575.066406 166.144531 C 617.304688 163.960938 659.160156 164.042969 700.058594 175.78125 C 730.335938 184.332031 759.882812 196.109375 787.730469 210.761719 C 804.054688 219.285156 818 231.96875 827.65625 247.460938 C 838.574219 264.28125 850.472656 280.804688 860.078125 298.246094 C 872.207031 318.34375 878.085938 341.851562 876.8125 365.828125 C 874.703125 396.925781 869.386719 426.640625 852.148438 453.136719 C 845.726562 463.035156 837.375 472.234375 833.332031 477.972656 Z M 256.347656 406.320312 C 219.433594 440.757812 177.800781 469.558594 132.425781 492.425781 C 111.40625 502.277344 92.242188 515.421875 75.292969 530.894531 C 61.351562 542.871094 55.359375 561.214844 58.792969 578.824219 C 61.347656 592.839844 65.867188 606.253906 72.679688 618.757812 C 86.269531 645.054688 103.15625 669.492188 130.039062 683.796875 C 194.375 717.539062 261.355469 724.746094 331.351562 703.148438 C 379.097656 688.777344 419.070312 661.558594 458.441406 632.375 C 476.972656 618.566406 494.570312 603.109375 513.75 589.316406 C 541.226562 568.269531 574.308594 556.449219 608.746094 554.722656 C 622.066406 554.085938 635.402344 552.800781 649.054688 551.84375 C 704.960938 548.0625 758.664062 529.300781 804.605469 497.039062 C 821.121094 485.773438 835.761719 471.867188 847.226562 455.285156 C 864.796875 428.472656 871.394531 399.4375 873.832031 368.027344 C 875.753906 344.066406 870.210938 320.238281 857.765625 299.808594 C 847.828125 282.6875 835.929688 266.164062 825.328125 249.671875 C 815.355469 233.847656 801.726562 221.5 785.714844 213.308594 C 757.851562 199.304688 729.273438 187.875 699.644531 179.339844 C 660.355469 167.96875 619.480469 167.585938 579.207031 169.167969 C 545.101562 170.578125 510.644531 172.953125 476.519531 175.015625 C 467.09375 175.75 457.996094 176.171875 448.550781 177.554688 C 407.839844 183.34375 377.152344 203.007812 358.332031 240.496094 C 341.589844 272.847656 323.585938 303.863281 306.859375 335.566406 C 293.53125 361.511719 278.289062 386.109375 256.347656 406.320312 Z M 256.347656 406.320312 " fill-opacity="1" fill-rule="nonzero"/></g></g></g></g></g></g></svg>