<svg xmlns="http://www.w3.org/2000/svg" xmlns:xlink="http://www.w3.org/1999/xlink" width="1920" zoomAndPan="magnify" viewBox="0 0 1440 809.999993" height="1080" preserveAspectRatio="xMidYMid meet" version="1.0"><defs><filter x="0%" y="0%" width="100%" height="100%" id="33424773e5"><feColorMatrix values="0 0 0 0 1 0 0 0 0 1 0 0 0 0 1 0 0 0 1 0" color-interpolation-filters="sRGB"/></filter><mask id="a9f6a28ffa"><g filter="url(#33424773e5)"><rect x="-144" width="1728" fill="#000000" y="-80.999999" height="971.999992" fill-opacity="0.84"/></g></mask><clipPath id="8daa502ff1"><path d="M 0 135 L 661 135 L 661 483 L 0 483 Z M 0 135 " clip-rule="nonzero"/></clipPath><clipPath id="6b4c791d93"><path d="M -174.867188 180.46875 L 495.964844 -23.816406 L 735.867188 763.964844 L 65.03125 968.253906 Z M -174.867188 180.46875 " clip-rule="nonzero"/></clipPath><clipPath id="c60a136ef7"><path d="M -174.867188 180.46875 L 495.964844 -23.816406 L 735.867188 763.964844 L 65.03125 968.253906 Z M -174.867188 180.46875 " clip-rule="nonzero"/></clipPath><clipPath id="4771d85ae0"><rect x="0" width="710" y="0" height="483"/></clipPath><mask id="5e93e146d7"><g filter="url(#33424773e5)"><rect x="-144" width="1728" fill="#000000" y="-80.999999" height="971.999992" fill-opacity="0.85"/></g></mask><clipPath id="c87b7a84d1"><path d="M 74 0 L 678 0 L 678 426 L 74 426 Z M 74 0 " clip-rule="nonzero"/></clipPath><clipPath id="248136d090"><path d="M 1005.746094 276.71875 L 412.964844 651.363281 L -26.992188 -44.761719 L 565.792969 -419.40625 Z M 1005.746094 276.71875 " clip-rule="nonzero"/></clipPath><clipPath id="335b808576"><path d="M 1005.746094 276.71875 L 412.964844 651.363281 L -26.992188 -44.761719 L 565.792969 -419.40625 Z M 1005.746094 276.71875 " clip-rule="nonzero"/></clipPath><clipPath id="c891d204e9"><rect x="0" width="678" y="0" height="624"/></clipPath><clipPath id="2a45457014"><path d="M 721 0 L 1440 0 L 1440 508 L 721 508 Z M 721 0 " clip-rule="nonzero"/></clipPath><clipPath id="39cdc9c8b9"><path d="M 1690.460938 8.648438 L 1450.617188 570.0625 L 560.21875 189.671875 L 800.0625 -371.742188 Z M 1690.460938 8.648438 " clip-rule="nonzero"/></clipPath><clipPath id="d1b5fb97d0"><path d="M 1690.460938 8.648438 L 1450.617188 570.0625 L 560.21875 189.671875 L 800.0625 -371.742188 Z M 1690.460938 8.648438 " clip-rule="nonzero"/></clipPath></defs><rect x="-144" width="1728" fill="#ffffff" y="-80.999999" height="971.999992" fill-opacity="1"/><rect x="-144" width="1728" fill="#ffffff" y="-80.999999" height="971.999992" fill-opacity="1"/><g mask="url(#a9f6a28ffa)"><g transform="matrix(1, 0, 0, 1, 0, 327)"><g clip-path="url(#4771d85ae0)"><g clip-path="url(#8daa502ff1)"><g clip-path="url(#6b4c791d93)"><g clip-path="url(#c60a136ef7)"><path fill="#323b4c" d="M -25.578125 164.761719 C 38.511719 115.492188 85.566406 146.363281 141.171875 137.816406 C 196.777344 129.265625 430.570312 145.351562 551.238281 349.910156 C 671.90625 554.46875 700.191406 674.890625 599.75 755.445312 C 499.3125 836.003906 326.726562 884.285156 247.078125 800.382812 C 167.425781 716.476562 -37.179688 451.183594 -68.671875 405.542969 C -135.460938 309.339844 -73.011719 201.230469 -25.578125 164.761719 Z M -25.578125 164.761719 " fill-opacity="1" fill-rule="nonzero"/></g></g></g></g></g></g><g mask="url(#5e93e146d7)"><g transform="matrix(1, 0, 0, 1, 762, 0.000000000000039746)"><g clip-path="url(#c891d204e9)"><g clip-path="url(#c87b7a84d1)"><g clip-path="url(#248136d090)"><g clip-path="url(#335b808576)"><path fill="#323b4c" d="M 865.949219 331.402344 C 817.195312 395.886719 763.644531 378.574219 712.285156 401.546875 C 660.929688 424.515625 431.226562 470.917969 260.695312 305.617188 C 90.164062 140.316406 31 31.6875 106.519531 -72.59375 C 182.039062 -176.871094 335.675781 -269.136719 434.703125 -209.320312 C 533.726562 -149.503906 801.285156 52.132812 843.738281 87.804688 C 933.621094 162.886719 902.03125 283.675781 865.949219 331.402344 Z M 865.949219 331.402344 " fill-opacity="1" fill-rule="nonzero"/></g></g></g></g></g></g><g clip-path="url(#2a45457014)"><g clip-path="url(#39cdc9c8b9)"><g clip-path="url(#d1b5fb97d0)"><path fill="#737373" d="M 1278.570312 496.5625 C 1210.136719 464.96875 1153.558594 412.523438 1116.820312 346.757812 C 1105.476562 327.773438 1095.558594 308.21875 1085.851562 288.167969 C 1067.941406 252.832031 1040.21875 223.90625 1005.535156 204.375 C 982.101562 190.238281 957.390625 179.09375 933.957031 164.960938 C 890.15625 139.175781 846.566406 112.898438 811.289062 75.441406 C 756.699219 19.722656 725.070312 -53.875 721.832031 -131.835938 C 720.371094 -160.148438 722.613281 -187.464844 734.390625 -213.65625 C 746.59375 -240.839844 764.277344 -265.683594 786.382812 -285.691406 C 791.929688 -290.394531 797.472656 -295.09375 804.015625 -299.367188 C 823.566406 -313.398438 849.183594 -315.414062 870.476562 -304.550781 C 897.75 -291.128906 923.039062 -274.4375 945.839844 -254.683594 C 992.863281 -215.742188 1045.996094 -184.207031 1102.957031 -161.640625 C 1125.8125 -153.054688 1150.160156 -147.953125 1175 -146.765625 C 1220.695312 -141.972656 1267.101562 -137.460938 1313.433594 -134.160156 C 1364.394531 -130.652344 1401.078125 -106.144531 1427.183594 -63.769531 C 1432.605469 -54.386719 1438.023438 -45 1442.734375 -35.332031 C 1460.644531 0.0078125 1478.058594 35.132812 1495.96875 70.46875 C 1518.09375 115.265625 1537.582031 160.703125 1543.984375 210.5625 C 1548.875 247.40625 1549.921875 284.964844 1547.054688 322.03125 C 1545.449219 343.730469 1538.21875 364.792969 1525.929688 382.515625 C 1512.792969 402.234375 1500.4375 422.875 1486.015625 441.453125 C 1469.890625 464.019531 1447.140625 481.394531 1420.539062 491.238281 C 1385.828125 503.503906 1351.109375 511.648438 1314.308594 505.351562 C 1300.570312 503.015625 1286.6875 498.261719 1278.570312 496.5625 Z M 1086.375 -162.832031 C 1031.757812 -186.753906 981.042969 -218.4375 935.019531 -256.949219 C 914.496094 -275.140625 891.277344 -289.773438 866.566406 -300.917969 C 847.054688 -310.433594 824.355469 -308.347656 806.867188 -296.382812 C 792.859375 -287.050781 780.417969 -275.871094 770.046875 -262.628906 C 747.878906 -235.578125 729.277344 -205.824219 726.335938 -169.96875 C 719.835938 -84.386719 743.351562 -8.363281 799.519531 57.453125 C 837.441406 102.519531 885.664062 133.136719 935.734375 162.183594 C 959.378906 175.820312 984.375 187.675781 1008.304688 202.023438 C 1043.988281 221.980469 1072.28125 252.328125 1090.265625 288.875 C 1097.1875 303.027344 1104.820312 316.890625 1112.242188 331.253906 C 1142.496094 390.125 1187.96875 439.59375 1244.453125 474.328125 C 1264.394531 486.972656 1286.328125 496.339844 1309.675781 501.015625 C 1346.976562 507.523438 1381.554688 501.089844 1416.765625 489.035156 C 1443.652344 479.90625 1466.902344 462.742188 1483.238281 439.675781 C 1497.160156 420.882812 1509.515625 400.242188 1522.441406 381.023438 C 1534.941406 362.804688 1541.957031 342.238281 1543.351562 321.039062 C 1545.507812 284.257812 1544.535156 247.910156 1539.929688 211.777344 C 1533.886719 163.835938 1515.179688 119.324219 1494.625 76.375 C 1477.140625 40.042969 1458.445312 3.777344 1440.25 -32.269531 C 1435.039062 -42.152344 1430.328125 -51.824219 1424.410156 -61.421875 C 1399.089844 -102.871094 1363.402344 -126.953125 1313.9375 -129.824219 C 1271.019531 -132.84375 1228.953125 -137.855469 1186.75 -141.160156 C 1152.371094 -143.472656 1118.5625 -148.492188 1086.375 -162.832031 Z M 1086.375 -162.832031 " fill-opacity="1" fill-rule="nonzero"/></g></g></g></svg>